<svg width="99" height="166" viewBox="0 0 99 166" fill="none" xmlns="http://www.w3.org/2000/svg">
<path d="M23.1973 12.6104H27.5586V14.4902H23.1973V19.4316H21.1992V14.4902H16.8379V12.6104H21.1992V8.04492H23.1973V12.6104Z" fill="#E5E5E5"/>
<path d="M27.5586 47.6104V49.4795H16.8379V47.6104H27.5586ZM23.1973 43.0449V54.4316H21.21V43.0449H23.1973Z" fill="#E5E5E5"/>
<path d="M27.5586 82.6104V84.4795H16.8379V82.6104H27.5586ZM23.1973 78.0449V89.4316H21.21V78.0449H23.1973Z" fill="#6246E5"/>
<path d="M27.5586 117.61V119.479H16.8379V117.61H27.5586ZM23.1973 113.045V124.432H21.21V113.045H23.1973Z" fill="#E5E5E5"/>
<path d="M27.5586 152.61V154.479H16.8379V152.61H27.5586ZM23.1973 148.045V159.432H21.21V148.045H23.1973Z" fill="#E5E5E5"/>
<path d="M62.5586 12.6104V14.4795H51.8379V12.6104H62.5586ZM58.1973 8.04492V19.4316H56.21V8.04492H58.1973Z" fill="#E5E5E5"/>
<path d="M62.5586 47.6104V49.4795H51.8379V47.6104H62.5586ZM58.1973 43.0449V54.4316H56.21V43.0449H58.1973Z" fill="#E5E5E5"/>
<path d="M62.5586 82.6104V84.4795H51.8379V82.6104H62.5586ZM58.1973 78.0449V89.4316H56.21V78.0449H58.1973Z" fill="#E5E5E5"/>
<path d="M62.5586 117.61V119.479H51.8379V117.61H62.5586ZM58.1973 113.045V124.432H56.21V113.045H58.1973Z" fill="#E5E5E5"/>
<path d="M62.5586 152.61V154.479H51.8379V152.61H62.5586ZM58.1973 148.045V159.432H56.21V148.045H58.1973Z" fill="#E5E5E5"/>
<path d="M93.1973 12.6104H97.5586V14.4902H93.1973V19.4316H91.1992V14.4902H86.8379V12.6104H91.1992V8.04492H93.1973V12.6104Z" fill="#FF7152"/>
<path d="M93.1973 47.6104H97.5586V49.4902H93.1973V54.4316H91.1992V49.4902H86.8379V47.6104H91.1992V43.0449H93.1973V47.6104Z" fill="#E5E5E5"/>
<path d="M97.5586 82.6104V84.4795H86.8379V82.6104H97.5586ZM93.1973 78.0449V89.4316H91.21V78.0449H93.1973Z" fill="#E5E5E5"/>
<path d="M97.5586 117.61V119.479H86.8379V117.61H97.5586ZM93.1973 113.045V124.432H91.21V113.045H93.1973Z" fill="#E5E5E5"/>
<path d="M97.5586 152.61V154.479H86.8379V152.61H97.5586ZM93.1973 148.045V159.432H91.21V148.045H93.1973Z" fill="#E5E5E5"/>
</svg>
