<svg width="112" height="79" viewBox="0 0 112 79" fill="none" xmlns="http://www.w3.org/2000/svg">
<g clip-path="url(#clip0_108_84)">
<rect width="1440" height="4774" transform="translate(-491 -1184)" fill="white"/>
<g filter="url(#filter0_dddddd_108_84)">
<rect x="-74" y="-40" width="267" height="314" rx="36" fill="white"/>
</g>
<path d="M22.8052 31C22.8052 40.9411 30.864 49 40.8052 49L67.8052 49C70.5666 49 72.8052 46.7614 72.8052 44L72.8052 10C72.8052 4.47715 68.328 -1.65037e-07 62.8052 3.17786e-07L27.8052 3.37758e-06C25.0437 3.61899e-06 22.8052 2.23858 22.8052 5L22.8052 31Z" fill="#FFF1DA"/>
<path d="M71.3891 44.9413C70.0307 45.2456 68.7077 45.8091 67.5022 46.5965C64.3614 48.5978 62.5341 51.4546 63.421 52.9767C64.308 54.4988 67.5731 54.1095 70.7138 52.1082C71.9356 51.3486 73.021 50.3779 73.9032 49.2559C74.3125 48.7138 74.386 48.0383 74.0908 47.5334L72.9386 45.556C72.6454 45.0495 72.0374 44.8086 71.3891 44.9413Z" fill="#D5D6DB"/>
<path d="M63.5021 17.9483C62.5171 18.1691 61.5577 18.5779 60.6834 19.1489C58.4066 20.5997 57.0808 22.6711 57.7234 23.7739C58.366 24.8767 60.7345 24.5942 63.0111 23.1435C63.897 22.5925 64.6839 21.8882 65.3237 21.0746C65.6202 20.6816 65.6733 20.1923 65.4593 19.8262L64.6251 18.3944C64.4128 18.0273 63.9722 17.8522 63.5021 17.9483Z" fill="#D5D6DB"/>
<path d="M50.6879 19.0786C50.4687 19.0541 50.2349 19.1126 50.0321 19.2421L44.6839 22.6503C44.2366 22.9345 44.0576 23.4818 44.2845 23.873C44.3364 23.9626 44.4074 24.0392 44.4936 24.0982L57.6753 33.1831L75.5087 21.8184L50.6879 19.0786Z" fill="#029BC5"/>
<path d="M107.065 17.794L58.5329 48.3461L29.8202 59.7716L15.177 62.6823L13.5661 59.9451L94.4612 9.99845C96.872 8.50357 99.5576 7.58602 102.246 7.33893C103.424 7.23704 104.587 7.2762 105.708 7.45499C106.702 7.6057 107.645 7.89641 108.509 8.3185C109.472 8.79674 111.307 8.85189 111.901 9.80471C111.903 9.80318 113.305 14.1776 107.065 17.794Z" fill="#E1E6E9"/>
<path d="M59.1762 44.3036L38.1809 77.7735C37.9187 78.2437 38.0744 78.7702 38.5283 78.9494C38.8068 79.0595 39.1477 79.016 39.4341 78.834L44.7781 75.4438C45.806 74.7915 46.7161 73.9629 47.4523 73.0093L88.1686 25.1404L59.1762 44.3036Z" fill="#029BC5"/>
<path d="M6.19659 43.1861C5.84636 43.0664 5.42958 43.1285 5.07775 43.3525L0.660258 46.1659C0.0583424 46.549 -0.181508 47.2854 0.124353 47.8111C0.182629 47.911 0.258329 47.999 0.349065 48.0714L12.7258 57.9838L25.7388 49.8557L6.19659 43.1861Z" fill="#029BC5"/>
<path d="M16.8742 59.7705L10.2127 69.1001C10.1151 69.2341 10.138 69.4025 10.264 69.4758C10.3548 69.5286 10.4788 69.5191 10.5796 69.4516L14.7079 66.8356C14.7399 66.8153 14.769 66.7898 14.793 66.7607L24.5265 54.926L16.8742 59.7705Z" fill="#029BC5"/>
<path d="M104.911 7.85723C103.757 7.6718 102.559 7.6322 101.346 7.73881C100.165 9.38989 99.4107 11.2446 99.1573 13.118C99.1388 13.4943 99.4422 13.7652 99.8351 13.723C99.9572 13.7098 100.079 13.6669 100.188 13.5981L107.796 8.75382C106.906 8.31521 105.935 8.01337 104.911 7.85723Z" fill="#029BC5"/>
<path d="M88.3321 16.7654L93.2991 13.6284L97.9257 21.4974L92.9587 24.6344L88.3321 16.7654Z" fill="#D5D6DB"/>
<path d="M85.2066 19.8777C84.6081 20.2569 84.3688 20.9857 84.6727 21.5054L85.165 22.3474C85.4889 22.8538 86.2282 22.9429 86.8164 22.5462C87.3763 22.1684 87.6017 21.4817 87.3319 20.9747L86.8396 20.1327C86.536 19.6134 85.8052 19.4992 85.2066 19.8777Z" fill="#3A556A"/>
<path d="M80.7422 22.6502C80.1437 23.0293 79.9044 23.7581 80.2083 24.2778L80.7006 25.1198C81.0245 25.6263 81.7637 25.7153 82.352 25.3186C82.9118 24.9408 83.1373 24.2542 82.8675 23.7471L82.3752 22.9052C82.0713 22.3861 81.3405 22.2718 80.7422 22.6502Z" fill="#3A556A"/>
<path d="M76.2763 25.4235C75.6785 25.8031 75.4401 26.531 75.7437 27.0503L76.236 27.8922C76.5599 28.3987 77.2991 28.4877 77.8874 28.091C78.4472 27.7133 78.6727 27.0266 78.4029 26.5196L77.9106 25.6776C77.6067 25.1579 76.8751 25.0442 76.2763 25.4235Z" fill="#3A556A"/>
<path d="M71.8121 28.1959C71.2142 28.5756 70.9758 29.3035 71.2794 29.8228L71.7717 30.6647C72.0956 31.1712 72.8348 31.2603 73.4231 30.8636C73.9829 30.4858 74.2084 29.7991 73.9386 29.2921L73.4463 28.4501C73.1422 27.9305 72.4106 27.8167 71.8121 28.1959Z" fill="#3A556A"/>
<path d="M67.3482 30.9686C66.7499 31.3484 66.5114 32.0766 66.8152 32.5961L67.3078 33.4384C67.6115 33.9577 68.3427 34.0714 68.9411 33.6924C69.5395 33.3134 69.7784 32.5853 69.4747 32.066L68.9821 31.2237C68.6792 30.7039 67.9482 30.5894 67.3494 30.9678C67.3489 30.9681 67.3487 30.9682 67.3482 30.9686Z" fill="#3A556A"/>
<path d="M62.8837 33.741C62.2855 34.1208 62.047 34.8491 62.3508 35.3686L62.8434 36.2109C63.147 36.7302 63.8783 36.8439 64.4767 36.4649C65.075 36.0859 65.3139 35.3577 65.0103 34.8385L64.5177 33.9961C64.2148 33.4764 63.4838 33.3619 62.885 33.7402C62.8845 33.7405 62.884 33.7409 62.8837 33.741Z" fill="#3A556A"/>
<path d="M58.4191 36.5135C57.8209 36.8933 57.5824 37.6215 57.8862 38.141L58.3788 38.9833C58.6832 39.5021 59.4148 39.6147 60.0125 39.2352C60.6092 38.8563 60.8476 38.1297 60.5454 37.6111L60.0528 36.7688C59.7492 36.2491 59.018 36.1348 58.4191 36.5135Z" fill="#3A556A"/>
<path d="M53.9545 39.2859C53.3563 39.6658 53.1178 40.394 53.4216 40.9135L53.9142 41.7558C54.2186 42.2746 54.9502 42.3872 55.5479 42.0077C56.1446 41.6289 56.383 40.9022 56.0808 40.3835L55.5882 39.5412C55.2846 39.0215 54.5534 38.9072 53.9545 39.2859Z" fill="#3A556A"/>
<path d="M49.4902 42.0584C48.892 42.4382 48.6535 43.1664 48.9573 43.6859L49.4499 44.5282C49.7543 45.047 50.4859 45.1596 51.0836 44.7801C51.6803 44.4013 51.9187 43.6746 51.6165 43.156L51.1239 42.3137C50.8201 41.7942 50.0888 41.6799 49.4902 42.0584Z" fill="#3A556A"/>
<path d="M45.0244 44.8316C44.426 45.2106 44.1871 45.9388 44.4908 46.458L44.4915 46.4591L44.984 47.3015C45.2885 47.8203 46.0201 47.9328 46.6178 47.5534C47.2145 47.1745 47.4529 46.4478 47.1506 45.9292L46.6581 45.0869C46.3545 44.5672 45.6233 44.4529 45.0244 44.8316Z" fill="#3A556A"/>
<path d="M40.5612 47.6033C39.9629 47.9823 39.724 48.7105 40.0276 49.2297L40.0283 49.2308L40.5209 50.0732C40.8253 50.5919 41.5569 50.7045 42.1546 50.325C42.7514 49.9462 42.9898 49.2196 42.6875 48.7009L42.1949 47.8586C41.8911 47.3391 41.1599 47.2248 40.5612 47.6033Z" fill="#3A556A"/>
</g>
<defs>
<filter id="filter0_dddddd_108_84" x="-154" y="-41.2963" width="427" height="495.296" filterUnits="userSpaceOnUse" color-interpolation-filters="sRGB">
<feFlood flood-opacity="0" result="BackgroundImageFix"/>
<feColorMatrix in="SourceAlpha" type="matrix" values="0 0 0 0 0 0 0 0 0 0 0 0 0 0 0 0 0 0 127 0" result="hardAlpha"/>
<feOffset dy="1.85185"/>
<feGaussianBlur stdDeviation="1.57407"/>
<feColorMatrix type="matrix" values="0 0 0 0 0 0 0 0 0 0 0 0 0 0 0 0 0 0 0.01 0"/>
<feBlend mode="normal" in2="BackgroundImageFix" result="effect1_dropShadow_108_84"/>
<feColorMatrix in="SourceAlpha" type="matrix" values="0 0 0 0 0 0 0 0 0 0 0 0 0 0 0 0 0 0 127 0" result="hardAlpha"/>
<feOffset dy="8.14815"/>
<feGaussianBlur stdDeviation="3.25926"/>
<feColorMatrix type="matrix" values="0 0 0 0 0 0 0 0 0 0 0 0 0 0 0 0 0 0 0.01 0"/>
<feBlend mode="normal" in2="effect1_dropShadow_108_84" result="effect2_dropShadow_108_84"/>
<feColorMatrix in="SourceAlpha" type="matrix" values="0 0 0 0 0 0 0 0 0 0 0 0 0 0 0 0 0 0 127 0" result="hardAlpha"/>
<feOffset dy="20"/>
<feGaussianBlur stdDeviation="6.5"/>
<feColorMatrix type="matrix" values="0 0 0 0 0 0 0 0 0 0 0 0 0 0 0 0 0 0 0.01 0"/>
<feBlend mode="normal" in2="effect2_dropShadow_108_84" result="effect3_dropShadow_108_84"/>
<feColorMatrix in="SourceAlpha" type="matrix" values="0 0 0 0 0 0 0 0 0 0 0 0 0 0 0 0 0 0 127 0" result="hardAlpha"/>
<feOffset dy="38.5185"/>
<feGaussianBlur stdDeviation="12.7407"/>
<feColorMatrix type="matrix" values="0 0 0 0 0 0 0 0 0 0 0 0 0 0 0 0 0 0 0.0121481 0"/>
<feBlend mode="normal" in2="effect3_dropShadow_108_84" result="effect4_dropShadow_108_84"/>
<feColorMatrix in="SourceAlpha" type="matrix" values="0 0 0 0 0 0 0 0 0 0 0 0 0 0 0 0 0 0 127 0" result="hardAlpha"/>
<feOffset dy="64.8148"/>
<feGaussianBlur stdDeviation="23.4259"/>
<feColorMatrix type="matrix" values="0 0 0 0 0 0 0 0 0 0 0 0 0 0 0 0 0 0 0.0151852 0"/>
<feBlend mode="normal" in2="effect4_dropShadow_108_84" result="effect5_dropShadow_108_84"/>
<feColorMatrix in="SourceAlpha" type="matrix" values="0 0 0 0 0 0 0 0 0 0 0 0 0 0 0 0 0 0 127 0" result="hardAlpha"/>
<feOffset dy="100"/>
<feGaussianBlur stdDeviation="40"/>
<feColorMatrix type="matrix" values="0 0 0 0 0 0 0 0 0 0 0 0 0 0 0 0 0 0 0.02 0"/>
<feBlend mode="normal" in2="effect5_dropShadow_108_84" result="effect6_dropShadow_108_84"/>
<feBlend mode="normal" in="SourceGraphic" in2="effect6_dropShadow_108_84" result="shape"/>
</filter>
<clipPath id="clip0_108_84">
<rect width="1440" height="4774" fill="white" transform="translate(-491 -1184)"/>
</clipPath>
</defs>
</svg>
