<svg width="25" height="24" viewBox="0 0 25 24" fill="none" xmlns="http://www.w3.org/2000/svg">
<g clip-path="url(#clip0_201_7)">
<path d="M12.5018 5.84744C9.09683 5.84744 6.34883 8.59544 6.34883 12.0004C6.34883 15.4054 9.09683 18.1534 12.5018 18.1534C15.9068 18.1534 18.6548 15.4054 18.6548 12.0004C18.6548 8.59544 15.9068 5.84744 12.5018 5.84744ZM12.5018 15.9994C10.2998 15.9994 8.50283 14.2024 8.50283 12.0004C8.50283 9.79844 10.2998 8.00144 12.5018 8.00144C14.7038 8.00144 16.5008 9.79844 16.5008 12.0004C16.5008 14.2024 14.7038 15.9994 12.5018 15.9994ZM18.9068 4.16144C18.1118 4.16144 17.4698 4.80344 17.4698 5.59844C17.4698 6.39344 18.1118 7.03544 18.9068 7.03544C19.7018 7.03544 20.3438 6.39644 20.3438 5.59844C20.3441 5.40966 20.3071 5.22269 20.2349 5.04824C20.1628 4.87379 20.057 4.71528 19.9235 4.5818C19.79 4.44831 19.6315 4.34247 19.457 4.27034C19.2826 4.19821 19.0956 4.1612 18.9068 4.16144V4.16144ZM24.4958 12.0004C24.4958 10.3444 24.5108 8.70344 24.4178 7.05044C24.3248 5.13044 23.8868 3.42644 22.4828 2.02244C21.0758 0.615437 19.3748 0.180437 17.4548 0.0874372C15.7988 -0.00556279 14.1578 0.00943725 12.5048 0.00943725C10.8488 0.00943725 9.20783 -0.00556279 7.55483 0.0874372C5.63483 0.180437 3.93083 0.618437 2.52683 2.02244C1.11983 3.42944 0.684832 5.13044 0.591832 7.05044C0.498832 8.70644 0.513832 10.3474 0.513832 12.0004C0.513832 13.6534 0.498832 15.2974 0.591832 16.9504C0.684832 18.8704 1.12283 20.5744 2.52683 21.9784C3.93383 23.3854 5.63483 23.8204 7.55483 23.9134C9.21083 24.0064 10.8518 23.9914 12.5048 23.9914C14.1608 23.9914 15.8018 24.0064 17.4548 23.9134C19.3748 23.8204 21.0788 23.3824 22.4828 21.9784C23.8898 20.5714 24.3248 18.8704 24.4178 16.9504C24.5138 15.2974 24.4958 13.6564 24.4958 12.0004V12.0004ZM21.8558 19.0744C21.6368 19.6204 21.3728 20.0284 20.9498 20.4484C20.5268 20.8714 20.1218 21.1354 19.5758 21.3544C17.9978 21.9814 14.2508 21.8404 12.5018 21.8404C10.7528 21.8404 7.00283 21.9814 5.42483 21.3574C4.87883 21.1384 4.47083 20.8744 4.05083 20.4514C3.62783 20.0284 3.36383 19.6234 3.14483 19.0774C2.52083 17.4964 2.66183 13.7494 2.66183 12.0004C2.66183 10.2514 2.52083 6.50144 3.14483 4.92344C3.36383 4.37744 3.62783 3.96944 4.05083 3.54944C4.47383 3.12944 4.87883 2.86244 5.42483 2.64344C7.00283 2.01944 10.7528 2.16044 12.5018 2.16044C14.2508 2.16044 18.0008 2.01944 19.5788 2.64344C20.1248 2.86244 20.5328 3.12644 20.9528 3.54944C21.3758 3.97244 21.6398 4.37744 21.8588 4.92344C22.4828 6.50144 22.3418 10.2514 22.3418 12.0004C22.3418 13.7494 22.4828 17.4964 21.8558 19.0744Z" fill="#E61F5A"/>
</g>
<defs>
<clipPath id="clip0_201_7">
<rect width="24" height="24" fill="white" transform="translate(0.5)"/>
</clipPath>
</defs>
</svg>
