<svg width="167" height="154" viewBox="0 0 167 154" fill="none" xmlns="http://www.w3.org/2000/svg">
<path d="M96.1744 86.8473C94.8161 87.1516 93.4931 87.7151 92.2875 88.5025C89.1467 90.5038 87.3194 93.3606 88.2064 94.8827C89.0933 96.4048 92.3584 96.0155 95.4992 94.0142C96.721 93.2547 97.8063 92.2839 98.6885 91.1619C99.0979 90.6198 99.1714 89.9443 98.8761 89.4394L97.7239 87.462C97.4308 86.9555 96.8227 86.7146 96.1744 86.8473Z" fill="#D5D6DB"/>
<path d="M88.2874 59.8543C87.3025 60.0751 86.343 60.4839 85.4688 61.0549C83.1919 62.5057 81.8662 64.5771 82.5088 65.6799C83.1514 66.7827 85.5198 66.5002 87.7964 65.0495C88.6823 64.4985 89.4693 63.7942 90.1091 62.9806C90.4055 62.5876 90.4587 62.0983 90.2447 61.7322L89.4104 60.3004C89.1981 59.9333 88.7575 59.7582 88.2874 59.8543Z" fill="#D5D6DB"/>
<path d="M75.4732 60.9846C75.254 60.9601 75.0201 61.0186 74.8174 61.1481L69.4692 64.5563C69.0218 64.8405 68.8428 65.3878 69.0698 65.779C69.1217 65.8686 69.1927 65.9452 69.2789 66.0042L82.4606 75.0891L100.294 63.7244L75.4732 60.9846Z" fill="#029BC5"/>
<path d="M131.85 59.7L83.3182 90.2521L54.6055 101.678L39.9623 104.588L38.3514 101.851L119.246 51.9045C121.657 50.4096 124.343 49.492 127.032 49.2449C128.209 49.143 129.372 49.1822 130.493 49.361C131.487 49.5117 132.43 49.8024 133.294 50.2245C134.258 50.7027 136.092 50.7579 136.687 51.7107C136.689 51.7092 138.091 56.0836 131.85 59.7V59.7Z" fill="#E1E6E9"/>
<path d="M83.9615 86.2096L62.9662 119.68C62.704 120.15 62.8597 120.676 63.3135 120.855C63.5921 120.965 63.933 120.922 64.2194 120.74L69.5634 117.35C70.5913 116.697 71.5014 115.869 72.2375 114.915L112.954 67.0464L83.9615 86.2096Z" fill="#029BC5"/>
<path d="M30.9819 85.0921C30.6317 84.9724 30.2149 85.0345 29.8631 85.2586L25.4456 88.0719C24.8437 88.455 24.6038 89.1914 24.9097 89.7171C24.9679 89.817 25.0436 89.905 25.1344 89.9774L37.5111 99.8898L50.5241 91.7617L30.9819 85.0921Z" fill="#029BC5"/>
<path d="M41.6595 101.677L34.998 111.006C34.9004 111.14 34.9233 111.308 35.0493 111.382C35.1401 111.435 35.2641 111.425 35.3649 111.358L39.4932 108.742C39.5252 108.721 39.5543 108.696 39.5783 108.667L49.3118 96.832L41.6595 101.677Z" fill="#029BC5"/>
<path d="M129.697 49.7632C128.542 49.5778 127.345 49.5382 126.132 49.6448C124.951 51.2959 124.196 53.1506 123.943 55.024C123.924 55.4003 124.228 55.6712 124.62 55.629C124.743 55.6158 124.864 55.5729 124.973 55.5041L132.581 50.6598C131.692 50.2212 130.72 49.9194 129.697 49.7632Z" fill="#029BC5"/>
<path d="M113.117 58.6714L118.084 55.5344L122.711 63.4035L117.744 66.5404L113.117 58.6714Z" fill="#D5D6DB"/>
<path d="M109.992 61.7837C109.393 62.1629 109.154 62.8917 109.458 63.4114L109.95 64.2534C110.274 64.7598 111.013 64.8489 111.602 64.4522C112.162 64.0744 112.387 63.3877 112.117 62.8807L111.625 62.0387C111.321 61.5194 110.59 61.4052 109.992 61.7837V61.7837Z" fill="#3A556A"/>
<path d="M105.527 64.5562C104.929 64.9353 104.69 65.6641 104.994 66.1838L105.486 67.0258C105.81 67.5323 106.549 67.6213 107.137 67.2246C107.697 66.8468 107.923 66.1602 107.653 65.6531L107.16 64.8112C106.857 64.2921 106.126 64.1778 105.527 64.5562V64.5562Z" fill="#3A556A"/>
<path d="M101.062 67.3295C100.464 67.7091 100.225 68.437 100.529 68.9563L101.021 69.7982C101.345 70.3047 102.084 70.3937 102.673 69.997C103.233 69.6193 103.458 68.9326 103.188 68.4256L102.696 67.5836C102.392 67.0639 101.66 66.9502 101.062 67.3295V67.3295Z" fill="#3A556A"/>
<path d="M96.5973 70.1019C95.9994 70.4816 95.7611 71.2095 96.0647 71.7288L96.557 72.5707C96.8808 73.0772 97.6201 73.1663 98.2084 72.7696C98.7682 72.3918 98.9937 71.7051 98.7239 71.1981L98.2316 70.3561C97.9274 69.8365 97.1959 69.7228 96.5973 70.1019V70.1019Z" fill="#3A556A"/>
<path d="M92.1334 72.8746C91.5352 73.2544 91.2967 73.9826 91.6005 74.5021L92.0931 75.3444C92.3967 75.8637 93.128 75.9774 93.7264 75.5984C94.3247 75.2195 94.5636 74.4913 94.26 73.972L93.7674 73.1297C93.4645 72.6099 92.7335 72.4954 92.1347 72.8738C92.1342 72.8741 92.1339 72.8743 92.1334 72.8746Z" fill="#3A556A"/>
<path d="M87.669 75.647C87.0708 76.0268 86.8323 76.7551 87.1361 77.2746L87.6287 78.1169C87.9323 78.6362 88.6636 78.7499 89.2619 78.3709C89.8603 77.9919 90.0992 77.2637 89.7956 76.7445L89.303 75.9021C89 75.3824 88.269 75.2679 87.6703 75.6462C87.6698 75.6466 87.6693 75.6469 87.669 75.647Z" fill="#3A556A"/>
<path d="M83.2044 78.4195C82.6062 78.7993 82.3677 79.5275 82.6714 80.047L83.164 80.8893C83.4685 81.4081 84.2001 81.5207 84.7978 81.1412C85.3945 80.7624 85.6329 80.0357 85.3306 79.5171L84.838 78.6748C84.5345 78.1551 83.8033 78.0408 83.2044 78.4195Z" fill="#3A556A"/>
<path d="M78.7398 81.192C78.1416 81.5718 77.9031 82.3 78.2068 82.8195L78.6994 83.6618C79.0039 84.1806 79.7355 84.2932 80.3332 83.9137C80.9299 83.5349 81.1683 82.8082 80.866 82.2895L80.3734 81.4472C80.0699 80.9276 79.3387 80.8132 78.7398 81.192Z" fill="#3A556A"/>
<path d="M74.2755 83.9644C73.6773 84.3442 73.4388 85.0724 73.7426 85.5919L74.2351 86.4342C74.5396 86.953 75.2712 87.0656 75.8689 86.6861C76.4656 86.3073 76.704 85.5806 76.4017 85.062L75.9092 84.2197C75.6054 83.7002 74.8741 83.5859 74.2755 83.9644Z" fill="#3A556A"/>
<path d="M69.8097 86.7376C69.2113 87.1166 68.9724 87.8448 69.2761 88.3641L69.2767 88.3651L69.7693 89.2075C70.0737 89.7263 70.8054 89.8389 71.4031 89.4594C71.9998 89.0805 72.2382 88.3539 71.9359 87.8352L71.4433 86.9929C71.1398 86.4732 70.4086 86.3589 69.8097 86.7376Z" fill="#3A556A"/>
<path d="M65.3465 89.5094C64.7481 89.8883 64.5092 90.6165 64.8129 91.1358L64.8135 91.1368L65.3061 91.9792C65.6106 92.4979 66.3422 92.6105 66.9399 92.231C67.5366 91.8522 67.775 91.1256 67.4728 90.6069L66.9802 89.7646C66.6764 89.2451 65.9451 89.1308 65.3465 89.5094Z" fill="#3A556A"/>
</svg>
