<svg width="115" height="151" viewBox="0 0 115 151" fill="none" xmlns="http://www.w3.org/2000/svg">
<g clip-path="url(#clip0_201_113)">
<rect width="414" height="7582" transform="translate(-276 -909)" fill="white"/>
<path d="M10.5586 4.61035V6.47949H-0.162109V4.61035H10.5586ZM6.19727 0.0449219V11.4316H4.20996V0.0449219H6.19727Z" fill="#FF7152"/>
<path d="M10.5586 39.6104V41.4795H-0.162109V39.6104H10.5586ZM6.19727 35.0449V46.4316H4.20996V35.0449H6.19727Z" fill="#E5E5E5"/>
<path d="M10.5586 74.6104V76.4795H-0.162109V74.6104H10.5586ZM6.19727 70.0449V81.4316H4.20996V70.0449H6.19727Z" fill="#E5E5E5"/>
<path d="M45.5586 4.61035V6.47949H34.8379V4.61035H45.5586ZM41.1973 0.0449219V11.4316H39.21V0.0449219H41.1973Z" fill="#E5E5E5"/>
<path d="M45.5586 39.6104V41.4795H34.8379V39.6104H45.5586ZM41.1973 35.0449V46.4316H39.21V35.0449H41.1973Z" fill="#E5E5E5"/>
<path d="M45.5586 74.6104V76.4795H34.8379V74.6104H45.5586ZM41.1973 70.0449V81.4316H39.21V70.0449H41.1973Z" fill="#E5E5E5"/>
<path d="M45.5586 109.61V111.479H34.8379V109.61H45.5586ZM41.1973 105.045V116.432H39.21V105.045H41.1973Z" fill="#E5E5E5"/>
<path d="M80.5586 4.61035V6.47949H69.8379V4.61035H80.5586ZM76.1973 0.0449219V11.4316H74.21V0.0449219H76.1973Z" fill="#E5E5E5"/>
<path d="M80.5586 39.6104V41.4795H69.8379V39.6104H80.5586ZM76.1973 35.0449V46.4316H74.21V35.0449H76.1973Z" fill="#E5E5E5"/>
<path d="M80.5586 74.6104V76.4795H69.8379V74.6104H80.5586ZM76.1973 70.0449V81.4316H74.21V70.0449H76.1973Z" fill="#6246E5"/>
<path d="M80.5586 109.61V111.479H69.8379V109.61H80.5586ZM76.1973 105.045V116.432H74.21V105.045H76.1973Z" fill="#E5E5E5"/>
<path d="M80.5586 144.61V146.479H69.8379V144.61H80.5586ZM76.1973 140.045V151.432H74.21V140.045H76.1973Z" fill="#E5E5E5"/>
<path d="M115.559 4.61035V6.47949H104.838V4.61035H115.559ZM111.197 0.0449219V11.4316H109.21V0.0449219H111.197Z" fill="#E5E5E5"/>
<path d="M115.559 39.6104V41.4795H104.838V39.6104H115.559ZM111.197 35.0449V46.4316H109.21V35.0449H111.197Z" fill="#E5E5E5"/>
<path d="M115.559 74.6104V76.4795H104.838V74.6104H115.559ZM111.197 70.0449V81.4316H109.21V70.0449H111.197Z" fill="#E5E5E5"/>
<path d="M115.559 109.61V111.479H104.838V109.61H115.559ZM111.197 105.045V116.432H109.21V105.045H111.197Z" fill="#E5E5E5"/>
<path d="M115.559 144.61V146.479H104.838V144.61H115.559ZM111.197 140.045V151.432H109.21V140.045H111.197Z" fill="#E5E5E5"/>
</g>
<defs>
<clipPath id="clip0_201_113">
<rect width="414" height="7582" fill="white" transform="translate(-276 -909)"/>
</clipPath>
</defs>
</svg>
