<svg width="1170" height="407" viewBox="0 0 1170 407" fill="none" xmlns="http://www.w3.org/2000/svg">
<path opacity="0.2" d="M1170 20C1170 8.9543 1161.05 0 1150 0H129C57.755 0 0 57.7553 0 129V387C0 398.046 8.9543 407 20 407H1150C1161.05 407 1170 398.046 1170 387V20Z" fill="#DFD7F9"/>
<g opacity="0.1">
<mask id="mask0_1_28" style="mask-type:alpha" maskUnits="userSpaceOnUse" x="906" y="0" width="264" height="352">
<path d="M906.5 0.5H1146C1158.98 0.5 1169.5 11.0213 1169.5 24V351.022H956C928.66 351.022 906.5 328.86 906.5 301.522V0.5Z" fill="url(#paint0_linear_1_28)" stroke="#6246E5"/>
</mask>
<g mask="url(#mask0_1_28)">
<path d="M1145.02 270.123C1195.72 270.123 1236.82 229.022 1236.82 178.32C1236.82 127.618 1195.72 86.5167 1145.02 86.5167C1094.32 86.5167 1053.22 127.618 1053.22 178.32C1053.22 229.022 1094.32 270.123 1145.02 270.123Z" stroke="#6246E5"/>
<path d="M1137.73 271.338C1194.47 271.338 1240.46 225.342 1240.46 168.604C1240.46 111.866 1194.47 65.87 1137.73 65.87C1080.99 65.87 1035 111.866 1035 168.604C1035 225.342 1080.99 271.338 1137.73 271.338Z" stroke="#6246E5"/>
<path d="M1131.66 273.159C1193.76 273.159 1244.11 222.813 1244.11 160.709C1244.11 98.6046 1193.76 48.259 1131.66 48.259C1069.56 48.259 1019.21 98.6046 1019.21 160.709C1019.21 222.813 1069.56 273.159 1131.66 273.159Z" stroke="#6246E5"/>
<path d="M1125.58 270.123C1192.38 270.123 1246.53 215.971 1246.53 149.171C1246.53 82.3711 1192.38 28.219 1125.58 28.219C1058.78 28.219 1004.63 82.3711 1004.63 149.171C1004.63 215.971 1058.78 270.123 1125.58 270.123Z" stroke="#6246E5"/>
<path d="M1119.81 267.087C1191.14 267.087 1248.96 209.265 1248.96 137.937C1248.96 66.6094 1191.14 8.787 1119.81 8.787C1048.48 8.787 990.66 66.6094 990.66 137.937C990.66 209.265 1048.48 267.087 1119.81 267.087Z" stroke="#6246E5"/>
<path d="M1110.1 267.087C1188.47 267.087 1252 203.555 1252 125.185C1252 46.8147 1188.47 -16.717 1110.1 -16.717C1031.73 -16.717 968.198 46.8147 968.198 125.185C968.198 203.555 1031.73 267.087 1110.1 267.087Z" stroke="#6246E5"/>
</g>
</g>
<g opacity="0.1">
<mask id="mask1_1_28" style="mask-type:alpha" maskUnits="userSpaceOnUse" x="-1" y="46" width="394" height="361">
<path d="M392.5 406.5V46.5L0 46.5V406.5L392.5 406.5Z" fill="url(#paint1_linear_1_28)" stroke="#6246E5"/>
</mask>
<g mask="url(#mask1_1_28)">
<path d="M149.505 499.92C80.172 499.92 23.966 443.635 23.966 374.202C23.966 304.77 80.172 248.484 149.505 248.484C218.838 248.484 275.045 304.77 275.045 374.202C275.045 443.635 218.838 499.92 149.505 499.92Z" stroke="#6246E5"/>
<path d="M162.773 504.902C85.197 504.902 22.308 441.925 22.308 364.238C22.308 286.55 85.197 223.573 162.773 223.573C240.349 223.573 303.238 286.55 303.238 364.238C303.238 441.925 240.349 504.902 162.773 504.902Z" stroke="#6246E5"/>
<path d="M173.552 509.885C88.649 509.885 19.82 440.959 19.82 355.934C19.82 270.909 88.649 201.983 173.552 201.983C258.456 201.983 327.285 270.909 327.285 355.934C327.285 440.959 258.456 509.885 173.552 509.885Z" stroke="#6246E5"/>
<path d="M189.308 513.206C97.993 513.206 23.966 439.076 23.966 347.63C23.966 256.184 97.993 182.054 189.308 182.054C280.622 182.054 354.649 256.184 354.649 347.63C354.649 439.076 280.622 513.206 189.308 513.206Z" stroke="#6246E5"/>
<path d="M204.648 516.528C107.15 516.528 28.112 437.378 28.112 339.742C28.112 242.105 107.15 162.955 204.648 162.955C302.145 162.955 381.183 242.105 381.183 339.742C381.183 437.379 302.145 516.528 204.648 516.528Z" stroke="#6246E5"/>
<path d="M222.061 520.68C114.947 520.68 28.112 433.723 28.112 326.456C28.112 219.188 114.947 132.232 222.061 132.232C329.175 132.232 416.01 219.188 416.01 326.456C416.01 433.723 329.175 520.68 222.061 520.68Z" stroke="#6246E5"/>
</g>
</g>
<defs>
<linearGradient id="paint0_linear_1_28" x1="1093.24" y1="9.86233" x2="911.232" y2="354.287" gradientUnits="userSpaceOnUse">
<stop stop-color="#747DEF"/>
<stop offset="1" stop-color="#5E3BE1"/>
</linearGradient>
<linearGradient id="paint1_linear_1_28" x1="381.875" y1="303.035" x2="-33.4639" y2="123.444" gradientUnits="userSpaceOnUse">
<stop stop-color="#747DEF"/>
<stop offset="1" stop-color="#5E3BE1"/>
</linearGradient>
</defs>
</svg>
