<svg width="96" height="78" viewBox="0 0 96 78" fill="none" xmlns="http://www.w3.org/2000/svg">
<path d="M96 60C96 69.9411 87.9411 78 78 78L51 78C48.2386 78 46 75.7614 46 73L46 39C46 33.4772 50.4772 29 56 29L91 29C93.7614 29 96 31.2386 96 34L96 60Z" fill="#FFF1DA"/>
<g filter="url(#filter0_d_1_357)">
<path d="M27.527 50.6574L25.6389 49.7535L14.4222 66.3382H26.9402L28.1464 65.5516V51.225L27.527 50.6574Z" fill="#407093"/>
<path d="M25.8096 49.8353L21.5645 47.803H20.7644L8.76067 65.5516L9.47529 66.3382H14.6483L25.8096 49.8353Z" fill="#365E7D"/>
<path d="M30.4 65.5515H13.8475C13.0956 65.5515 12.486 66.161 12.486 66.9131V68.6385C12.486 69.3903 13.0955 69.9998 13.8473 69.9999H30.4C31.152 69.9999 31.7616 69.3904 31.7616 68.6385V66.9131C31.7616 66.161 31.152 65.5515 30.4 65.5515V65.5515Z" fill="#4A80AA"/>
<path d="M12.7677 68.6385V66.9131C12.7677 66.1611 13.3774 65.5515 14.1293 65.5515H5.36158C4.60963 65.5515 4 66.161 4 66.9131V68.6385C4 69.3904 4.60963 69.9999 5.36158 69.9999H14.1292C13.3772 69.9999 12.7677 69.3904 12.7677 68.6385V68.6385Z" fill="#407093"/>
<path d="M25.2398 39.9827C24.7302 41.0338 24.4423 42.2123 24.4423 43.459C24.4423 46.8659 26.5757 49.7721 29.5783 50.9218C30.8674 50.5179 32.0128 49.7893 32.9176 48.8301V47.0893L25.2398 39.9827Z" fill="#4A80AA"/>
<path d="M24.5767 43.4863C24.5767 42.2684 24.8583 41.1173 25.357 40.0909L22.9027 37.8192H21.9069C20.4009 39.2399 19.4595 41.2525 19.4595 43.4862C19.4595 47.7893 22.9477 51.2775 27.2508 51.2775C28.1471 51.2775 29.0067 51.1237 29.8078 50.8449C26.7628 49.7856 24.5767 46.8921 24.5767 43.4863V43.4863Z" fill="#407093"/>
<path d="M69.812 0.924695C68.5791 -0.308232 66.5801 -0.308232 65.3473 0.924695L62.3345 3.93756V4.31941L66.0949 8.23954L66.7991 8.40223L69.8119 5.38937C71.0449 4.15658 71.0449 2.15762 69.812 0.924695V0.924695Z" fill="#FFD086"/>
<path d="M70.6449 2.41492C70.5134 1.86915 70.238 1.35085 69.812 0.924695C68.5791 -0.308232 66.5801 -0.308232 65.3473 0.924695L62.3345 3.93756V4.31941L64.3282 6.3978C65.5169 5.16091 66.697 3.94029 67.3039 3.3334C68.3156 2.32182 69.7933 2.31403 70.6449 2.41492V2.41492Z" fill="#FFC365"/>
<path d="M59.4975 8.95026C59.4629 8.95026 59.4279 8.94848 59.3927 8.94507L24.5763 5.51808C23.9957 5.46094 23.5714 4.944 23.6286 4.36336C23.6857 3.78272 24.2029 3.35875 24.7833 3.41549L59.5997 6.84234C60.1802 6.89949 60.6046 7.41642 60.5475 7.99706C60.4937 8.5427 60.0342 8.95026 59.4975 8.95026Z" fill="#365E7D"/>
<path d="M34.6459 15.4681C34.1774 15.4681 33.7493 15.1539 33.6249 14.6795C33.4768 14.1151 33.8144 13.5377 34.3786 13.3896L59.2287 6.87154C59.7929 6.72374 60.3706 7.06103 60.5185 7.6254C60.6666 8.18964 60.3291 8.76714 59.7648 8.9152L34.9147 15.4333C34.8247 15.4568 34.7345 15.4681 34.6459 15.4681V15.4681Z" fill="#407093"/>
<path d="M66.2465 47.136C65.7093 47.136 65.2498 46.7281 65.1963 46.1823L61.7907 11.3445C61.734 10.764 62.1586 10.2472 62.7392 10.1903C63.3199 10.1362 63.8366 10.5584 63.8933 11.139L67.2989 45.9768C67.3557 46.5573 66.931 47.0741 66.3504 47.131C66.3155 47.1342 66.2808 47.136 66.2465 47.136Z" fill="#365E7D"/>
<path d="M56.2253 37.2475C56.1357 37.2475 56.0447 37.2359 55.9539 37.212C55.3899 37.0624 55.054 36.4841 55.2036 35.9201L61.8176 10.9741C61.967 10.41 62.5452 10.0746 63.1093 10.2236C63.6733 10.3732 64.0092 10.9515 63.8596 11.5155L57.2456 36.4615C57.1202 36.9348 56.6927 37.2475 56.2253 37.2475V37.2475Z" fill="#407093"/>
<path d="M59.3069 6.96423L62.3274 3.9437L66.7914 8.40776L63.7709 11.4283L59.3069 6.96423Z" fill="#FFC365"/>
<path d="M61.6009 9.24573C62.3268 8.48557 63.4605 7.29995 64.557 6.15999L62.3346 3.9375L59.3136 6.95843L61.6009 9.24573Z" fill="#FFA90F"/>
<path d="M64.4509 13.1519C64.1806 13.1519 63.9101 13.0487 63.704 12.8425L57.8944 7.03305C57.4818 6.62044 57.4818 5.95175 57.8944 5.53899C58.3069 5.12665 58.9757 5.12665 59.3883 5.53899L65.1979 11.3484C65.6105 11.761 65.6105 12.4297 65.1979 12.8425C64.9916 13.0488 64.7213 13.1519 64.4509 13.1519Z" fill="#4A80AA"/>
<path d="M65.1326 49.0376L29.7618 13.36C25.0724 23.9466 24.2581 35.3114 27.7687 45.1115C37.4643 53.8573 51.9475 55.2003 65.2808 49.7026L65.1326 49.0376Z" fill="#B5DCFF"/>
<path d="M29.9502 13.55L21.8462 5.37573L21.0341 5.45585C15.3245 19.3031 16.9916 34.3917 26.6683 44.0684C27.2544 44.6545 27.8609 45.2107 28.4853 45.7383C24.4062 35.9498 25.0691 24.3077 29.9502 13.55V13.55Z" fill="#8BCAFF"/>
<path d="M68.365 46.5017L32.4915 10.6282C32.1385 10.6826 31.7986 10.8431 31.5268 11.1149L29.9664 12.6754C29.6313 13.0105 29.4647 13.4481 29.4599 13.8874L65.2197 49.647C65.7514 50.1787 66.6134 50.1787 67.1451 49.647L68.3651 48.4271C68.8967 47.8955 68.8967 47.0334 68.365 46.5017Z" fill="#DBEDFF"/>
<path d="M30.0203 12.7021L31.5481 11.1743C31.8295 10.8929 32.1848 10.7318 32.5515 10.6882L24.2352 2.37192C23.7035 1.84022 22.8415 1.84022 22.3096 2.37192L21.0896 3.59199C20.5579 4.12369 20.5579 4.9857 21.0896 5.5174L29.5228 13.9506C29.5117 13.5 29.6764 13.0459 30.0203 12.7021V12.7021Z" fill="#B5DCFF"/>
</g>
<defs>
<filter id="filter0_d_1_357" x="0" y="0" width="74.7367" height="77.9999" filterUnits="userSpaceOnUse" color-interpolation-filters="sRGB">
<feFlood flood-opacity="0" result="BackgroundImageFix"/>
<feColorMatrix in="SourceAlpha" type="matrix" values="0 0 0 0 0 0 0 0 0 0 0 0 0 0 0 0 0 0 127 0" result="hardAlpha"/>
<feOffset dy="4"/>
<feGaussianBlur stdDeviation="2"/>
<feComposite in2="hardAlpha" operator="out"/>
<feColorMatrix type="matrix" values="0 0 0 0 0 0 0 0 0 0 0 0 0 0 0 0 0 0 0.25 0"/>
<feBlend mode="normal" in2="BackgroundImageFix" result="effect1_dropShadow_1_357"/>
<feBlend mode="normal" in="SourceGraphic" in2="effect1_dropShadow_1_357" result="shape"/>
</filter>
</defs>
</svg>
